# xmcd
#
# Track frame offsets:
#	150
#	13159
#	29097
#	42270
#	53932
#	68352
#	86085
#	99307
#	110340
#	128197
#	142920
#	157192
#	169350
#	185887
#	202352
#	220990
#	238030
#	256072
#	271000
#	283527
#
# Disc length: 3989 seconds
#
# Revision: 2
# Processed by: cddbd v1.4PL0 Copyright (c) Steve Scherf et al.
# Submitted via: MusicWizard 6.0.2
#
DISCID=2d0f9314
DTITLE=Anne Murray - The Signature Series (I'll Always Love You/Somebody's Waiting)
DYEAR=1979
DGENRE=Country
TTITLE0=You've Got Me To Hold On To
TTITLE1=I'll Always Love You
TTITLE2=Stranger At My Door
TTITLE3=Good Old Song
TTITLE4=Why Don't You Stick Around
TTITLE5=Broken Hearted Me
TTITLE6=Easy Love
TTITLE7=Daydream Believer
TTITLE8=Wintery Feeling
TTITLE9=Lover's Knot
TTITLE10=Lucky Me
TTITLE11=You Set My Dreams To Music
TTITLE12=What's Forever For
TTITLE13=Do You Think Of Me
TTITLE14=The French Waltz
TTITLE15=I'm Happy Just To Dance With You
TTITLE16=Moon Over Brooklyn
TTITLE17=Nevertheless (I'm In Love With You)
TTITLE18=Beginning To Feel Like Home
TTITLE19=Somebody's Waiting
EXTD=\n
EXTT0=
EXTT1=
EXTT2=
EXTT3=
EXTT4=
EXTT5=
EXTT6=
EXTT7=
EXTT8=
EXTT9=
EXTT10=
EXTT11=
EXTT12=
EXTT13=
EXTT14=
EXTT15=
EXTT16=
EXTT17=
EXTT18=
EXTT19=
PLAYORDER=
